<svg width="571" height="156" viewBox="0 0 571 156" fill="none" xmlns="http://www.w3.org/2000/svg">
<path d="M48.3 152.05C36 152.05 25.9 149.15 18 143.35C10.1 137.45 5.85 129.05 5.25 118.15H36.6C36.9 121.85 38 124.55 39.9 126.25C41.8 127.95 44.25 128.8 47.25 128.8C49.95 128.8 52.15 128.15 53.85 126.85C55.65 125.45 56.55 123.55 56.55 121.15C56.55 118.05 55.1 115.65 52.2 113.95C49.3 112.25 44.6 110.35 38.1 108.25C31.2 105.95 25.6 103.75 21.3 101.65C17.1 99.45 13.4 96.3 10.2 92.2C7.1 88 5.55 82.55 5.55 75.85C5.55 69.05 7.25 63.25 10.65 58.45C14.05 53.55 18.75 49.85 24.75 47.35C30.75 44.85 37.55 43.6 45.15 43.6C57.45 43.6 67.25 46.5 74.55 52.3C81.95 58 85.9 66.05 86.4 76.45H54.45C54.35 73.25 53.35 70.85 51.45 69.25C49.65 67.65 47.3 66.85 44.4 66.85C42.2 66.85 40.4 67.5 39 68.8C37.6 70.1 36.9 71.95 36.9 74.35C36.9 76.35 37.65 78.1 39.15 79.6C40.75 81 42.7 82.25 45 83.35C47.3 84.35 50.7 85.65 55.2 87.25C61.9 89.55 67.4 91.85 71.7 94.15C76.1 96.35 79.85 99.5 82.95 103.6C86.15 107.6 87.75 112.7 87.75 118.9C87.75 125.2 86.15 130.85 82.95 135.85C79.85 140.85 75.3 144.8 69.3 147.7C63.4 150.6 56.4 152.05 48.3 152.05ZM116.268 59.05C111.068 59.05 106.868 57.65 103.668 54.85C100.568 51.95 99.0176 48.35 99.0176 44.05C99.0176 39.65 100.568 36 103.668 33.1C106.868 30.2 111.068 28.75 116.268 28.75C121.368 28.75 125.468 30.2 128.568 33.1C131.768 36 133.368 39.65 133.368 44.05C133.368 48.35 131.768 51.95 128.568 54.85C125.468 57.65 121.368 59.05 116.268 59.05ZM130.818 66.85V151H101.418V66.85H130.818ZM197.21 125.95V151H184.46C162.96 151 152.21 140.35 152.21 119.05V91.3H141.86V66.85H152.21V46.45H181.76V66.85H197.06V91.3H181.76V119.5C181.76 121.8 182.26 123.45 183.26 124.45C184.36 125.45 186.16 125.95 188.66 125.95H197.21ZM291.095 107.95C291.095 110.25 290.945 112.55 290.645 114.85H234.995C235.295 119.45 236.545 122.9 238.745 125.2C241.045 127.4 243.945 128.5 247.445 128.5C252.345 128.5 255.845 126.3 257.945 121.9H289.295C287.995 127.7 285.445 132.9 281.645 137.5C277.945 142 273.245 145.55 267.545 148.15C261.845 150.75 255.545 152.05 248.645 152.05C240.345 152.05 232.945 150.3 226.445 146.8C220.045 143.3 214.995 138.3 211.295 131.8C207.695 125.3 205.895 117.65 205.895 108.85C205.895 100.05 207.695 92.45 211.295 86.05C214.895 79.55 219.895 74.55 226.295 71.05C232.795 67.55 240.245 65.8 248.645 65.8C256.945 65.8 264.295 67.5 270.695 70.9C277.095 74.3 282.095 79.2 285.695 85.6C289.295 91.9 291.095 99.35 291.095 107.95ZM261.095 100.6C261.095 97 259.895 94.2 257.495 92.2C255.095 90.1 252.095 89.05 248.495 89.05C244.895 89.05 241.945 90.05 239.645 92.05C237.345 93.95 235.845 96.8 235.145 100.6H261.095Z" fill="#10375B"/>
<path d="M18 143.35L15.0081 147.356L15.0245 147.368L15.041 147.38L18 143.35ZM5.25 118.15V113.15H-0.0327988L0.257558 118.425L5.25 118.15ZM36.6 118.15L41.5836 117.746L41.211 113.15H36.6V118.15ZM39.9 126.25L36.566 129.976L36.566 129.976L39.9 126.25ZM53.85 126.85L56.8873 130.822L56.9035 130.809L56.9197 130.797L53.85 126.85ZM52.2 113.95L54.7286 109.637L54.7286 109.637L52.2 113.95ZM38.1 108.25L36.5189 112.993L36.5408 113.001L36.5628 113.008L38.1 108.25ZM21.3 101.65L18.98 106.079L19.0424 106.112L19.1058 106.143L21.3 101.65ZM10.2 92.2L6.17713 95.1693L6.21706 95.2234L6.25842 95.2764L10.2 92.2ZM10.65 58.45L14.7301 61.3401L14.7441 61.3203L14.7579 61.3004L10.65 58.45ZM24.75 47.35L22.8269 42.7346L22.8269 42.7346L24.75 47.35ZM74.55 52.3L71.4396 56.2148L71.4691 56.2382L71.4989 56.2611L74.55 52.3ZM86.4 76.45V81.45H91.6462L91.3942 76.2099L86.4 76.45ZM54.45 76.45L49.4524 76.6062L49.6038 81.45H54.45V76.45ZM51.45 69.25L48.1282 72.987L48.1782 73.0315L48.2293 73.0746L51.45 69.25ZM39 68.8L42.4023 72.464L42.4023 72.464L39 68.8ZM39.15 79.6L35.6145 83.1355L35.7322 83.2533L35.8575 83.3629L39.15 79.6ZM45 83.35L42.8427 87.8607L42.9239 87.8995L43.0064 87.9353L45 83.35ZM55.2 87.25L53.525 91.9611L53.5507 91.9702L53.5766 91.9791L55.2 87.25ZM71.7 94.15L69.3417 98.5589L69.4024 98.5914L69.4639 98.6221L71.7 94.15ZM82.95 103.6L78.9617 106.616L79.0029 106.67L79.0457 106.723L82.95 103.6ZM82.95 135.85L78.7386 133.155L78.7194 133.185L78.7005 133.215L82.95 135.85ZM69.3 147.7L67.1242 143.198L67.1093 143.205L67.0944 143.213L69.3 147.7ZM48.3 147.05C36.7899 147.05 27.8035 144.345 20.959 139.32L15.041 147.38C23.9966 153.955 35.2101 157.05 48.3 157.05V147.05ZM20.9919 139.344C14.4149 134.432 10.7709 127.476 10.2424 117.875L0.257558 118.425C0.929099 130.624 5.78511 140.468 15.0081 147.356L20.9919 139.344ZM5.25 123.15H36.6V113.15H5.25V123.15ZM31.6164 118.554C31.9731 122.954 33.3516 127.1 36.566 129.976L43.234 122.524C42.6484 122 41.8269 120.746 41.5836 117.746L31.6164 118.554ZM36.566 129.976C39.541 132.638 43.25 133.8 47.25 133.8V123.8C45.25 123.8 44.059 123.262 43.234 122.524L36.566 129.976ZM47.25 133.8C50.7565 133.8 54.109 132.946 56.8873 130.822L50.8128 122.878C50.191 123.354 49.1435 123.8 47.25 123.8V133.8ZM56.9197 130.797C60.0099 128.393 61.55 124.999 61.55 121.15H51.55C51.55 122.101 51.2901 122.507 50.7803 122.903L56.9197 130.797ZM61.55 121.15C61.55 116.101 59.0027 112.142 54.7286 109.637L49.6714 118.263C51.1973 119.158 51.55 119.999 51.55 121.15H61.55ZM54.7286 109.637C51.3367 107.648 46.2052 105.614 39.6372 103.492L36.5628 113.008C42.9948 115.086 47.2633 116.852 49.6714 118.263L54.7286 109.637ZM39.6811 103.507C32.8951 101.245 27.5219 99.1242 23.4942 97.1572L19.1058 106.143C23.6781 108.376 29.5049 110.655 36.5189 112.993L39.6811 103.507ZM23.62 97.2208C20.1096 95.3821 16.9464 92.7173 14.1416 89.1236L6.25842 95.2764C9.85358 99.8826 14.0904 103.518 18.98 106.079L23.62 97.2208ZM14.2229 89.2307C11.9171 86.1068 10.55 81.7855 10.55 75.85H0.55C0.55 83.3145 2.28287 89.8932 6.17713 95.1693L14.2229 89.2307ZM10.55 75.85C10.55 69.9184 12.0183 65.1685 14.7301 61.3401L6.56988 55.5599C2.48166 61.3315 0.55 68.1816 0.55 75.85H10.55ZM14.7579 61.3004C17.5645 57.2557 21.4726 54.1322 26.6731 51.9654L22.8269 42.7346C16.0274 45.5678 10.5355 49.8443 6.54206 55.5996L14.7579 61.3004ZM26.6731 51.9654C31.9696 49.7585 38.0999 48.6 45.15 48.6V38.6C37.0001 38.6 29.5304 39.9415 22.8269 42.7346L26.6731 51.9654ZM45.15 48.6C56.6824 48.6 65.271 51.3137 71.4396 56.2148L77.6604 48.3852C69.229 41.6863 58.2176 38.6 45.15 38.6V48.6ZM71.4989 56.2611C77.5947 60.9566 80.9671 67.5665 81.4058 76.6901L91.3942 76.2099C90.8329 64.5335 86.3053 55.0434 77.6011 48.3389L71.4989 56.2611ZM86.4 71.45H54.45V81.45H86.4V71.45ZM59.4476 76.2938C59.3168 72.1105 57.9515 68.1882 54.6707 65.4254L48.2293 73.0746C48.7486 73.5118 49.3832 74.3895 49.4524 76.6062L59.4476 76.2938ZM54.7718 65.513C51.8776 62.9403 48.2619 61.85 44.4 61.85V71.85C46.3381 71.85 47.4224 72.3596 48.1282 72.987L54.7718 65.513ZM44.4 61.85C41.1429 61.85 38.0626 62.8473 35.5977 65.136L42.4023 72.464C42.7374 72.1527 43.2571 71.85 44.4 71.85V61.85ZM35.5977 65.136C32.9303 67.613 31.9 70.9398 31.9 74.35H41.9C41.9 72.9602 42.2697 72.587 42.4023 72.464L35.5977 65.136ZM31.9 74.35C31.9 77.7628 33.2399 80.761 35.6145 83.1355L42.6855 76.0645C42.0601 75.439 41.9 74.9372 41.9 74.35H31.9ZM35.8575 83.3629C37.8602 85.1152 40.2109 86.602 42.8427 87.8607L47.1573 78.8393C45.1891 77.898 43.6398 76.8848 42.4425 75.8371L35.8575 83.3629ZM43.0064 87.9353C45.4662 89.0048 48.9949 90.3504 53.525 91.9611L56.8751 82.5389C52.4051 80.9496 49.1338 79.6952 46.9936 78.7646L43.0064 87.9353ZM53.5766 91.9791C60.126 94.2274 65.3572 96.4276 69.3417 98.5589L74.0583 89.7411C69.4428 87.2724 63.674 84.8726 56.8234 82.5209L53.5766 91.9791ZM69.4639 98.6221C73.1444 100.462 76.3045 103.101 78.9617 106.616L86.9383 100.584C83.3955 95.8989 79.0556 92.2376 73.9361 89.6779L69.4639 98.6221ZM79.0457 106.723C81.3962 109.662 82.75 113.588 82.75 118.9H92.75C92.75 111.812 90.9038 105.538 86.8543 100.477L79.0457 106.723ZM82.75 118.9C82.75 124.306 81.3916 129.009 78.7386 133.155L87.1614 138.545C90.9084 132.691 92.75 126.094 92.75 118.9H82.75ZM78.7005 133.215C76.1646 137.305 72.3863 140.655 67.1242 143.198L71.4758 152.202C78.2137 148.945 83.5354 144.395 87.1995 138.485L78.7005 133.215ZM67.0944 143.213C62.0214 145.706 55.8093 147.05 48.3 147.05V157.05C56.9907 157.05 64.7786 155.494 71.5056 152.187L67.0944 143.213ZM103.668 54.85L100.252 58.5014L100.312 58.5581L100.375 58.6129L103.668 54.85ZM103.668 33.1L100.31 29.3951L100.281 29.4216L100.252 29.4486L103.668 33.1ZM128.568 33.1L125.152 36.7514L125.181 36.7784L125.21 36.8049L128.568 33.1ZM128.568 54.85L131.919 58.5605L131.925 58.5549L128.568 54.85ZM130.818 66.85H135.818V61.85H130.818V66.85ZM130.818 151V156H135.818V151H130.818ZM101.418 151H96.4176V156H101.418V151ZM101.418 66.85V61.85H96.4176V66.85H101.418ZM116.268 54.05C111.997 54.05 109.057 52.9218 106.96 51.0871L100.375 58.6129C104.678 62.3781 110.138 64.05 116.268 64.05V54.05ZM107.083 51.1986C105.009 49.2579 104.018 46.9864 104.018 44.05H94.0176C94.0176 49.7135 96.1264 54.6421 100.252 58.5014L107.083 51.1986ZM104.018 44.05C104.018 40.9769 105.035 38.6677 107.083 36.7514L100.252 29.4486C96.1002 33.3323 94.0176 38.3231 94.0176 44.05H104.018ZM107.025 36.8049C109.125 34.9017 112.042 33.75 116.268 33.75V23.75C110.093 23.75 104.61 25.4983 100.31 29.3951L107.025 36.8049ZM116.268 33.75C120.37 33.75 123.158 34.8866 125.152 36.7514L131.983 29.4486C127.777 25.5134 122.365 23.75 116.268 23.75V33.75ZM125.21 36.8049C127.342 38.7369 128.368 41.0311 128.368 44.05H138.368C138.368 38.2689 136.193 33.263 131.925 29.3951L125.21 36.8049ZM128.368 44.05C128.368 46.9316 127.369 49.1882 125.21 51.1451L131.925 58.5549C136.166 54.7118 138.368 49.7684 138.368 44.05H128.368ZM125.216 51.1395C123.228 52.9355 120.416 54.05 116.268 54.05V64.05C122.319 64.05 127.707 62.3645 131.919 58.5605L125.216 51.1395ZM125.818 66.85V151H135.818V66.85H125.818ZM130.818 146H101.418V156H130.818V146ZM106.418 151V66.85H96.4176V151H106.418ZM101.418 71.85H130.818V61.85H101.418V71.85ZM197.21 125.95H202.21V120.95H197.21V125.95ZM197.21 151V156H202.21V151H197.21ZM152.21 91.3H157.21V86.3H152.21V91.3ZM141.86 91.3H136.86V96.3H141.86V91.3ZM141.86 66.85V61.85H136.86V66.85H141.86ZM152.21 66.85V71.85H157.21V66.85H152.21ZM152.21 46.45V41.45H147.21V46.45H152.21ZM181.76 46.45H186.76V41.45H181.76V46.45ZM181.76 66.85H176.76V71.85H181.76V66.85ZM197.06 66.85H202.06V61.85H197.06V66.85ZM197.06 91.3V96.3H202.06V91.3H197.06ZM181.76 91.3V86.3H176.76V91.3H181.76ZM183.26 124.45L179.725 127.986L179.809 128.07L179.897 128.15L183.26 124.45ZM192.21 125.95V151H202.21V125.95H192.21ZM197.21 146H184.46V156H197.21V146ZM184.46 146C174.469 146 167.897 143.527 163.792 139.46C159.695 135.402 157.21 128.917 157.21 119.05H147.21C147.21 130.483 150.1 139.973 156.754 146.565C163.399 153.148 172.951 156 184.46 156V146ZM157.21 119.05V91.3H147.21V119.05H157.21ZM152.21 86.3H141.86V96.3H152.21V86.3ZM146.86 91.3V66.85H136.86V91.3H146.86ZM141.86 71.85H152.21V61.85H141.86V71.85ZM157.21 66.85V46.45H147.21V66.85H157.21ZM152.21 51.45H181.76V41.45H152.21V51.45ZM176.76 46.45V66.85H186.76V46.45H176.76ZM181.76 71.85H197.06V61.85H181.76V71.85ZM192.06 66.85V91.3H202.06V66.85H192.06ZM197.06 86.3H181.76V96.3H197.06V86.3ZM176.76 91.3V119.5H186.76V91.3H176.76ZM176.76 119.5C176.76 122.332 177.345 125.606 179.725 127.986L186.796 120.914C186.992 121.111 186.983 121.221 186.92 121.012C186.851 120.785 186.76 120.312 186.76 119.5H176.76ZM179.897 128.15C182.369 130.397 185.704 130.95 188.66 130.95V120.95C187.72 120.95 187.119 120.853 186.773 120.757C186.438 120.664 186.466 120.607 186.624 120.75L179.897 128.15ZM188.66 130.95H197.21V120.95H188.66V130.95ZM290.645 114.85V119.85H295.035L295.603 115.497L290.645 114.85ZM234.995 114.85V109.85H229.658L230.006 115.175L234.995 114.85ZM238.745 125.2L235.132 128.656L235.209 128.736L235.289 128.813L238.745 125.2ZM257.945 121.9V116.9H254.791L253.433 119.746L257.945 121.9ZM289.295 121.9L294.174 122.994L295.54 116.9H289.295V121.9ZM281.645 137.5L277.79 134.316L277.783 134.324L281.645 137.5ZM267.545 148.15L269.62 152.699L269.62 152.699L267.545 148.15ZM226.445 146.8L224.046 151.187L224.06 151.195L224.074 151.202L226.445 146.8ZM211.295 131.8L206.921 134.222L206.935 134.248L206.95 134.273L211.295 131.8ZM211.295 86.05L215.653 88.5013L215.661 88.4869L215.669 88.4725L211.295 86.05ZM226.295 71.05L223.924 66.6476L223.91 66.6553L223.896 66.6631L226.295 71.05ZM270.695 70.9L273.041 66.4844L273.041 66.4844L270.695 70.9ZM285.695 85.6L281.337 88.0513L281.345 88.066L281.354 88.0807L285.695 85.6ZM261.095 100.6V105.6H266.095V100.6H261.095ZM257.495 92.2L254.202 95.9629L254.248 96.0025L254.294 96.0411L257.495 92.2ZM239.645 92.05L242.829 95.9048L242.878 95.8645L242.926 95.823L239.645 92.05ZM235.145 100.6L230.228 99.6942L229.14 105.6H235.145V100.6ZM286.095 107.95C286.095 110.032 285.959 112.116 285.687 114.203L295.603 115.497C295.931 112.984 296.095 110.468 296.095 107.95H286.095ZM290.645 109.85H234.995V119.85H290.645V109.85ZM230.006 115.175C230.349 120.434 231.823 125.197 235.132 128.656L242.358 121.744C241.267 120.603 240.241 118.466 239.984 114.525L230.006 115.175ZM235.289 128.813C238.616 131.996 242.797 133.5 247.445 133.5V123.5C245.093 123.5 243.474 122.804 242.201 121.587L235.289 128.813ZM247.445 133.5C250.66 133.5 253.721 132.771 256.406 131.083C259.092 129.395 261.074 126.953 262.457 124.054L253.433 119.746C252.716 121.247 251.898 122.105 251.084 122.617C250.269 123.129 249.13 123.5 247.445 123.5V133.5ZM257.945 126.9H289.295V116.9H257.945V126.9ZM284.416 120.806C283.289 125.836 281.091 130.32 277.79 134.316L285.5 140.684C289.799 135.48 292.701 129.564 294.174 122.994L284.416 120.806ZM277.783 134.324C274.602 138.193 270.531 141.292 265.47 143.601L269.62 152.699C275.959 149.808 281.288 145.807 285.507 140.676L277.783 134.324ZM265.47 143.601C260.485 145.875 254.902 147.05 248.645 147.05V157.05C256.188 157.05 263.205 155.625 269.62 152.699L265.47 143.601ZM248.645 147.05C241.068 147.05 234.5 145.459 228.815 142.398L224.074 151.202C231.39 155.141 239.622 157.05 248.645 157.05V147.05ZM228.844 142.413C223.279 139.37 218.894 135.042 215.64 129.327L206.95 134.273C211.096 141.558 216.811 147.23 224.046 151.187L228.844 142.413ZM215.669 129.377C212.549 123.745 210.895 116.959 210.895 108.85H200.895C200.895 118.341 202.841 126.855 206.921 134.222L215.669 129.377ZM210.895 108.85C210.895 100.738 212.55 94.0173 215.653 88.5013L206.937 83.5987C202.84 90.8827 200.895 99.3615 200.895 108.85H210.895ZM215.669 88.4725C218.819 82.7848 223.141 78.4735 228.694 75.4368L223.896 66.6631C216.649 70.6265 210.971 76.3152 206.921 83.6275L215.669 88.4725ZM228.665 75.4523C234.342 72.3959 240.957 70.8 248.645 70.8V60.8C239.533 60.8 231.248 62.7041 223.924 66.6476L228.665 75.4523ZM248.645 70.8C256.247 70.8 262.77 72.3519 268.349 75.3156L273.041 66.4844C265.819 62.6481 257.643 60.8 248.645 60.8V70.8ZM268.349 75.3156C273.893 78.2605 278.199 82.4734 281.337 88.0513L290.053 83.1487C285.99 75.9266 280.297 70.3395 273.041 66.4844L268.349 75.3156ZM281.354 88.0807C284.448 93.4961 286.095 100.058 286.095 107.95H296.095C296.095 98.6417 294.142 90.3039 290.036 83.1193L281.354 88.0807ZM266.095 100.6C266.095 95.7686 264.417 91.4595 260.696 88.3589L254.294 96.0411C255.373 96.9405 256.095 98.2314 256.095 100.6H266.095ZM260.787 88.4371C257.358 85.4362 253.139 84.05 248.495 84.05V94.05C251.051 94.05 252.832 94.7638 254.202 95.9629L260.787 88.4371ZM248.495 84.05C243.919 84.05 239.734 85.3468 236.364 88.277L242.926 95.823C244.156 94.7532 245.871 94.05 248.495 94.05V84.05ZM236.461 88.1952C233.015 91.0416 231.077 95.0853 230.228 99.6942L240.062 101.506C240.613 98.5147 241.675 96.8584 242.829 95.9048L236.461 88.1952ZM235.145 105.6H261.095V95.6H235.145V105.6Z" fill="white"/>
<path d="M421.75 62.5H408.55V151H381.55V108.25H330.25V120.85C330.25 123.35 330.85 125.4 332.05 127C333.25 128.6 335.05 129.4 337.45 129.4C339.75 129.4 341.5 128.65 342.7 127.15C343.9 125.65 344.5 123.7 344.5 121.3V119.5H370.45C370.55 120.5 370.6 121.65 370.6 122.95C370.6 131.95 367.7 139.1 361.9 144.4C356.2 149.7 348.25 152.35 338.05 152.35C330.65 152.35 324.35 150.9 319.15 148C313.95 145.1 310 141.2 307.3 136.3C304.7 131.3 303.4 125.7 303.4 119.5V89.05H313.75C321.15 89.05 326.3 87.5 329.2 84.4C332.2 81.3 333.7 76.95 333.7 71.35V62.5H292.9V40H421.75V62.5ZM381.55 62.5H360.85V71.35C360.85 76.95 360 81.9 358.3 86.2H381.55V62.5ZM383.058 40.75C379.358 35.05 376.358 30.95 374.058 28.45C371.758 25.85 369.358 24.1 366.858 23.2C364.358 22.3 360.858 21.85 356.358 21.85H348.108V0.0999937H356.058C364.758 0.199998 371.658 1.15 376.758 2.94999C381.758 4.74999 386.658 8.44999 391.458 14.05C396.158 19.65 401.808 28.55 408.408 40.75H383.058ZM521.358 40V62.5H508.458V151H481.908V134.05C479.408 136.95 476.308 139.2 472.608 140.8C468.908 142.4 464.758 143.2 460.158 143.2C453.158 143.2 447.158 141.65 442.158 138.55C437.158 135.35 433.308 131.05 430.608 125.65C428.008 120.15 426.708 113.95 426.708 107.05C426.708 100.35 428.008 94.4 430.608 89.2C433.308 83.9 437.158 79.75 442.158 76.75C447.258 73.65 453.258 72.1 460.158 72.1C464.758 72.1 468.908 72.9 472.608 74.5C476.308 76 479.408 78.2 481.908 81.1V62.5H417.558V40H521.358ZM467.808 121.75C472.108 121.75 475.508 120.4 478.008 117.7C480.608 114.9 481.908 111.55 481.908 107.65C481.908 103.65 480.608 100.35 478.008 97.75C475.508 95.05 472.108 93.7 467.808 93.7C463.508 93.7 460.008 95.05 457.308 97.75C454.708 100.35 453.408 103.65 453.408 107.65C453.408 111.75 454.708 115.15 457.308 117.85C460.008 120.45 463.508 121.75 467.808 121.75ZM530.368 151V62.5H517.168V40H570.418V62.5H557.368V151H530.368Z" fill="#1DA8A8"/>
<path d="M421.75 62.5V67.5H426.75V62.5H421.75ZM408.55 62.5V57.5H403.55V62.5H408.55ZM408.55 151V156H413.55V151H408.55ZM381.55 151H376.55V156H381.55V151ZM381.55 108.25H386.55V103.25H381.55V108.25ZM330.25 108.25V103.25H325.25V108.25H330.25ZM344.5 119.5V114.5H339.5V119.5H344.5ZM370.45 119.5L375.425 119.002L374.975 114.5H370.45V119.5ZM361.9 144.4L358.527 140.709L358.511 140.724L358.495 140.738L361.9 144.4ZM319.15 148L321.585 143.633L321.585 143.633L319.15 148ZM307.3 136.3L302.864 138.607L302.892 138.66L302.921 138.713L307.3 136.3ZM303.4 89.05V84.05H298.4V89.05H303.4ZM329.2 84.4L325.607 80.9229L325.578 80.9533L325.549 80.9842L329.2 84.4ZM333.7 62.5H338.7V57.5H333.7V62.5ZM292.9 62.5H287.9V67.5H292.9V62.5ZM292.9 40V35H287.9V40H292.9ZM421.75 40H426.75V35H421.75V40ZM381.55 62.5H386.55V57.5H381.55V62.5ZM360.85 62.5V57.5H355.85V62.5H360.85ZM358.3 86.2L353.65 84.3617L350.947 91.2H358.3V86.2ZM381.55 86.2V91.2H386.55V86.2H381.55ZM421.75 57.5H408.55V67.5H421.75V57.5ZM403.55 62.5V151H413.55V62.5H403.55ZM408.55 146H381.55V156H408.55V146ZM386.55 151V108.25H376.55V151H386.55ZM381.55 103.25H330.25V113.25H381.55V103.25ZM325.25 108.25V120.85H335.25V108.25H325.25ZM325.25 120.85C325.25 124.157 326.054 127.338 328.05 130L336.05 124C335.647 123.462 335.25 122.543 335.25 120.85H325.25ZM328.05 130C330.388 133.117 333.83 134.4 337.45 134.4V124.4C336.8 124.4 336.468 124.292 336.331 124.231C336.223 124.183 336.146 124.129 336.05 124L328.05 130ZM337.45 134.4C340.936 134.4 344.265 133.197 346.604 130.273L338.796 124.027C338.735 124.103 338.564 124.4 337.45 124.4V134.4ZM346.604 130.273C348.676 127.684 349.5 124.546 349.5 121.3H339.5C339.5 122.854 339.124 123.616 338.796 124.027L346.604 130.273ZM349.5 121.3V119.5H339.5V121.3H349.5ZM344.5 124.5H370.45V114.5H344.5V124.5ZM365.475 119.998C365.554 120.793 365.6 121.771 365.6 122.95H375.6C375.6 121.529 375.546 120.207 375.425 119.002L365.475 119.998ZM365.6 122.95C365.6 130.771 363.135 136.498 358.527 140.709L365.273 148.091C372.265 141.702 375.6 133.129 375.6 122.95H365.6ZM358.495 140.738C353.979 144.938 347.39 147.35 338.05 147.35V157.35C349.11 157.35 358.421 154.462 365.305 148.062L358.495 140.738ZM338.05 147.35C331.298 147.35 325.881 146.029 321.585 143.633L316.715 152.367C322.819 155.771 330.002 157.35 338.05 157.35V147.35ZM321.585 143.633C317.149 141.159 313.898 137.913 311.679 133.887L302.921 138.713C306.102 144.487 310.751 149.041 316.715 152.367L321.585 143.633ZM311.736 133.993C309.543 129.775 308.4 124.979 308.4 119.5H298.4C298.4 126.421 299.857 132.825 302.864 138.607L311.736 133.993ZM308.4 119.5V89.05H298.4V119.5H308.4ZM303.4 94.05H313.75V84.05H303.4V94.05ZM313.75 94.05C321.571 94.05 328.505 92.4623 332.851 87.8158L325.549 80.9842C324.095 82.5377 320.729 84.05 313.75 84.05V94.05ZM332.793 87.8771C336.941 83.5912 338.7 77.8463 338.7 71.35H328.7C328.7 76.0537 327.459 79.0088 325.607 80.9229L332.793 87.8771ZM338.7 71.35V62.5H328.7V71.35H338.7ZM333.7 57.5H292.9V67.5H333.7V57.5ZM297.9 62.5V40H287.9V62.5H297.9ZM292.9 45H421.75V35H292.9V45ZM416.75 40V62.5H426.75V40H416.75ZM381.55 57.5H360.85V67.5H381.55V57.5ZM355.85 62.5V71.35H365.85V62.5H355.85ZM355.85 71.35C355.85 76.45 355.076 80.7563 353.65 84.3617L362.95 88.0383C364.924 83.0437 365.85 77.45 365.85 71.35H355.85ZM358.3 91.2H381.55V81.2H358.3V91.2ZM386.55 86.2V62.5H376.55V86.2H386.55ZM383.058 40.75L378.864 43.4724L380.343 45.75H383.058V40.75ZM374.058 28.45L370.313 31.7629L370.346 31.7994L370.379 31.8353L374.058 28.45ZM366.858 23.2L365.165 27.9044L365.165 27.9044L366.858 23.2ZM348.108 21.85H343.108V26.85H348.108V21.85ZM348.108 0.0999937V-4.90001H343.108V0.0999937H348.108ZM356.058 0.0999937L356.116 -4.89968L356.087 -4.90001H356.058V0.0999937ZM376.758 2.94999L378.452 -1.75444L378.437 -1.75975L378.422 -1.76496L376.758 2.94999ZM391.458 14.05L395.288 10.8356L395.271 10.8157L395.254 10.796L391.458 14.05ZM408.408 40.75V45.75H416.798L412.806 38.3709L408.408 40.75ZM387.252 38.0276C383.519 32.2764 380.333 27.886 377.738 25.0647L370.379 31.8353C372.383 34.014 375.198 37.8236 378.864 43.4724L387.252 38.0276ZM377.803 25.1371C375.112 22.0952 372.047 19.7538 368.552 18.4956L365.165 27.9044C366.669 28.4462 368.404 29.6048 370.313 31.7629L377.803 25.1371ZM368.552 18.4956C365.26 17.3103 361.093 16.85 356.358 16.85V26.85C360.624 26.85 363.457 27.2897 365.165 27.9044L368.552 18.4956ZM356.358 16.85H348.108V26.85H356.358V16.85ZM353.108 21.85V0.0999937H343.108V21.85H353.108ZM348.108 5.09999H356.058V-4.90001H348.108V5.09999ZM356.001 5.09966C364.444 5.19672 370.728 6.1238 375.094 7.66495L378.422 -1.76496C372.589 -3.8238 365.072 -4.79672 356.116 -4.89968L356.001 5.09966ZM375.065 7.65443C378.994 9.06913 383.217 12.1186 387.662 17.304L395.254 10.796C390.099 4.78137 384.522 0.43086 378.452 -1.75444L375.065 7.65443ZM387.628 17.2643C391.997 22.4695 397.455 31.0121 404.01 43.1291L412.806 38.3709C406.161 26.0879 400.319 16.8305 395.288 10.8356L387.628 17.2643ZM408.408 35.75H383.058V45.75H408.408V35.75ZM521.358 40H526.358V35H521.358V40ZM521.358 62.5V67.5H526.358V62.5H521.358ZM508.458 62.5V57.5H503.458V62.5H508.458ZM508.458 151V156H513.458V151H508.458ZM481.908 151H476.908V156H481.908V151ZM481.908 134.05H486.908V120.592L478.121 130.785L481.908 134.05ZM442.158 138.55L439.463 142.761L439.493 142.781L439.524 142.8L442.158 138.55ZM430.608 125.65L426.088 127.787L426.111 127.837L426.136 127.886L430.608 125.65ZM430.608 89.2L426.153 86.9304L426.144 86.9471L426.136 86.9639L430.608 89.2ZM442.158 76.75L444.731 81.0375L444.743 81.0301L444.755 81.0226L442.158 76.75ZM472.608 74.5L470.624 79.0893L470.676 79.1121L470.73 79.1337L472.608 74.5ZM481.908 81.1L478.121 84.3647L486.908 94.5577V81.1H481.908ZM481.908 62.5H486.908V57.5H481.908V62.5ZM417.558 62.5H412.558V67.5H417.558V62.5ZM417.558 40V35H412.558V40H417.558ZM478.008 117.7L474.344 114.298L474.339 114.303L478.008 117.7ZM478.008 97.75L474.339 101.147L474.405 101.218L474.473 101.286L478.008 97.75ZM457.308 97.75L460.844 101.286L460.844 101.286L457.308 97.75ZM457.308 117.85L453.707 121.318L453.772 121.386L453.84 121.452L457.308 117.85ZM516.358 40V62.5H526.358V40H516.358ZM521.358 57.5H508.458V67.5H521.358V57.5ZM503.458 62.5V151H513.458V62.5H503.458ZM508.458 146H481.908V156H508.458V146ZM486.908 151V134.05H476.908V151H486.908ZM478.121 130.785C476.14 133.083 473.668 134.894 470.624 136.211L474.593 145.389C478.948 143.506 482.676 140.817 485.695 137.315L478.121 130.785ZM470.624 136.211C467.633 137.504 464.171 138.2 460.158 138.2V148.2C465.345 148.2 470.184 147.296 474.593 145.389L470.624 136.211ZM460.158 138.2C453.911 138.2 448.863 136.824 444.793 134.3L439.524 142.8C445.454 146.476 452.406 148.2 460.158 148.2V138.2ZM444.853 134.339C440.627 131.633 437.384 128.022 435.08 123.414L426.136 127.886C429.232 134.078 433.69 139.067 439.463 142.761L444.853 134.339ZM435.129 123.513C432.884 118.766 431.708 113.31 431.708 107.05H421.708C421.708 114.59 423.132 121.534 426.088 127.787L435.129 123.513ZM431.708 107.05C431.708 101.008 432.877 95.843 435.08 91.4361L426.136 86.9639C423.14 92.957 421.708 99.6923 421.708 107.05H431.708ZM435.063 91.4696C437.347 86.9878 440.552 83.5447 444.731 81.0375L439.586 72.4625C433.764 75.9553 429.27 80.8122 426.153 86.9304L435.063 91.4696ZM444.755 81.0226C448.957 78.4687 454.029 77.1 460.158 77.1V67.1C452.488 67.1 445.559 68.8313 439.561 72.4774L444.755 81.0226ZM460.158 77.1C464.172 77.1 467.633 77.7959 470.624 79.0893L474.593 69.9107C470.184 68.0041 465.345 67.1 460.158 67.1V77.1ZM470.73 79.1337C473.726 80.3485 476.162 82.0921 478.121 84.3647L485.695 77.8353C482.654 74.3079 478.89 71.6515 474.487 69.8663L470.73 79.1337ZM486.908 81.1V62.5H476.908V81.1H486.908ZM481.908 57.5H417.558V67.5H481.908V57.5ZM422.558 62.5V40H412.558V62.5H422.558ZM417.558 45H521.358V35H417.558V45ZM467.808 126.75C473.244 126.75 478.069 124.993 481.677 121.097L474.339 114.303C472.947 115.807 470.972 116.75 467.808 116.75V126.75ZM481.672 121.102C485.15 117.356 486.908 112.783 486.908 107.65H476.908C476.908 110.317 476.066 112.444 474.344 114.298L481.672 121.102ZM486.908 107.65C486.908 102.452 485.168 97.8392 481.544 94.2145L474.473 101.286C476.048 102.861 476.908 104.848 476.908 107.65H486.908ZM481.677 94.353C478.069 90.4568 473.244 88.7 467.808 88.7V98.7C470.972 98.7 472.947 99.6432 474.339 101.147L481.677 94.353ZM467.808 88.7C462.365 88.7 457.532 90.4552 453.773 94.2145L460.844 101.286C462.484 99.6448 464.652 98.7 467.808 98.7V88.7ZM453.773 94.2145C450.148 97.8392 448.408 102.452 448.408 107.65H458.408C458.408 104.848 459.268 102.861 460.844 101.286L453.773 94.2145ZM448.408 107.65C448.408 112.911 450.121 117.595 453.707 121.318L460.91 114.382C459.295 112.705 458.408 110.589 458.408 107.65H448.408ZM453.84 121.452C457.61 125.082 462.42 126.75 467.808 126.75V116.75C464.596 116.75 462.407 115.818 460.776 114.248L453.84 121.452ZM530.368 151H525.368V156H530.368V151ZM530.368 62.5H535.368V57.5H530.368V62.5ZM517.168 62.5H512.168V67.5H517.168V62.5ZM517.168 40V35H512.168V40H517.168ZM570.418 40H575.418V35H570.418V40ZM570.418 62.5V67.5H575.418V62.5H570.418ZM557.368 62.5V57.5H552.368V62.5H557.368ZM557.368 151V156H562.368V151H557.368ZM535.368 151V62.5H525.368V151H535.368ZM530.368 57.5H517.168V67.5H530.368V57.5ZM522.168 62.5V40H512.168V62.5H522.168ZM517.168 45H570.418V35H517.168V45ZM565.418 40V62.5H575.418V40H565.418ZM570.418 57.5H557.368V67.5H570.418V57.5ZM552.368 62.5V151H562.368V62.5H552.368ZM557.368 146H530.368V156H557.368V146Z" fill="white"/>
</svg>
