<svg width="500" height="110" viewBox="0 0 571 156" fill="none" xmlns="http://www.w3.org/2000/svg">
<path d="M48.3 152.05C36 152.05 25.9 149.15 18 143.35C10.1 137.45 5.85 129.05 5.25 118.15H36.6C36.9 121.85 38 124.55 39.9 126.25C41.8 127.95 44.25 128.8 47.25 128.8C49.95 128.8 52.15 128.15 53.85 126.85C55.65 125.45 56.55 123.55 56.55 121.15C56.55 118.05 55.1 115.65 52.2 113.95C49.3 112.25 44.6 110.35 38.1 108.25C31.2 105.95 25.6 103.75 21.3 101.65C17.1 99.45 13.4 96.3 10.2 92.2C7.1 88 5.55 82.55 5.55 75.85C5.55 69.05 7.25 63.25 10.65 58.45C14.05 53.55 18.75 49.85 24.75 47.35C30.75 44.85 37.55 43.6 45.15 43.6C57.45 43.6 67.25 46.5 74.55 52.3C81.95 58 85.9 66.05 86.4 76.45H54.45C54.35 73.25 53.35 70.85 51.45 69.25C49.65 67.65 47.3 66.85 44.4 66.85C42.2 66.85 40.4 67.5 39 68.8C37.6 70.1 36.9 71.95 36.9 74.35C36.9 76.35 37.65 78.1 39.15 79.6C40.75 81 42.7 82.25 45 83.35C47.3 84.35 50.7 85.65 55.2 87.25C61.9 89.55 67.4 91.85 71.7 94.15C76.1 96.35 79.85 99.5 82.95 103.6C86.15 107.6 87.75 112.7 87.75 118.9C87.75 125.2 86.15 130.85 82.95 135.85C79.85 140.85 75.3 144.8 69.3 147.7C63.4 150.6 56.4 152.05 48.3 152.05ZM116.268 59.05C111.068 59.05 106.868 57.65 103.668 54.85C100.568 51.95 99.0176 48.35 99.0176 44.05C99.0176 39.65 100.568 36 103.668 33.1C106.868 30.2 111.068 28.75 116.268 28.75C121.368 28.75 125.468 30.2 128.568 33.1C131.768 36 133.368 39.65 133.368 44.05C133.368 48.35 131.768 51.95 128.568 54.85C125.468 57.65 121.368 59.05 116.268 59.05ZM130.818 66.85V151H101.418V66.85H130.818ZM197.21 125.95V151H184.46C162.96 151 152.21 140.35 152.21 119.05V91.3H141.86V66.85H152.21V46.45H181.76V66.85H197.06V91.3H181.76V119.5C181.76 121.8 182.26 123.45 183.26 124.45C184.36 125.45 186.16 125.95 188.66 125.95H197.21ZM291.095 107.95C291.095 110.25 290.945 112.55 290.645 114.85H234.995C235.295 119.45 236.545 122.9 238.745 125.2C241.045 127.4 243.945 128.5 247.445 128.5C252.345 128.5 255.845 126.3 257.945 121.9H289.295C287.995 127.7 285.445 132.9 281.645 137.5C277.945 142 273.245 145.55 267.545 148.15C261.845 150.75 255.545 152.05 248.645 152.05C240.345 152.05 232.945 150.3 226.445 146.8C220.045 143.3 214.995 138.3 211.295 131.8C207.695 125.3 205.895 117.65 205.895 108.85C205.895 100.05 207.695 92.45 211.295 86.05C214.895 79.55 219.895 74.55 226.295 71.05C232.795 67.55 240.245 65.8 248.645 65.8C256.945 65.8 264.295 67.5 270.695 70.9C277.095 74.3 282.095 79.2 285.695 85.6C289.295 91.9 291.095 99.35 291.095 107.95ZM261.095 100.6C261.095 97 259.895 94.2 257.495 92.2C255.095 90.1 252.095 89.05 248.495 89.05C244.895 89.05 241.945 90.05 239.645 92.05C237.345 93.95 235.845 96.8 235.145 100.6H261.095Z" fill="#10375B"/>
<path d="M421.75 62.5H408.55V151H381.55V108.25H330.25V120.85C330.25 123.35 330.85 125.4 332.05 127C333.25 128.6 335.05 129.4 337.45 129.4C339.75 129.4 341.5 128.65 342.7 127.15C343.9 125.65 344.5 123.7 344.5 121.3V119.5H370.45C370.55 120.5 370.6 121.65 370.6 122.95C370.6 131.95 367.7 139.1 361.9 144.4C356.2 149.7 348.25 152.35 338.05 152.35C330.65 152.35 324.35 150.9 319.15 148C313.95 145.1 310 141.2 307.3 136.3C304.7 131.3 303.4 125.7 303.4 119.5V89.05H313.75C321.15 89.05 326.3 87.5 329.2 84.4C332.2 81.3 333.7 76.95 333.7 71.35V62.5H292.9V40H421.75V62.5ZM381.55 62.5H360.85V71.35C360.85 76.95 360 81.9 358.3 86.2H381.55V62.5ZM383.058 40.75C379.358 35.05 376.358 30.95 374.058 28.45C371.758 25.85 369.358 24.1 366.858 23.2C364.358 22.3 360.858 21.85 356.358 21.85H348.108V0.0999937H356.058C364.758 0.199998 371.658 1.15 376.758 2.94999C381.758 4.74999 386.658 8.44999 391.458 14.05C396.158 19.65 401.808 28.55 408.408 40.75H383.058ZM521.358 40V62.5H508.458V151H481.908V134.05C479.408 136.95 476.308 139.2 472.608 140.8C468.908 142.4 464.758 143.2 460.158 143.2C453.158 143.2 447.158 141.65 442.158 138.55C437.158 135.35 433.308 131.05 430.608 125.65C428.008 120.15 426.708 113.95 426.708 107.05C426.708 100.35 428.008 94.4 430.608 89.2C433.308 83.9 437.158 79.75 442.158 76.75C447.258 73.65 453.258 72.1 460.158 72.1C464.758 72.1 468.908 72.9 472.608 74.5C476.308 76 479.408 78.2 481.908 81.1V62.5H417.558V40H521.358ZM467.808 121.75C472.108 121.75 475.508 120.4 478.008 117.7C480.608 114.9 481.908 111.55 481.908 107.65C481.908 103.65 480.608 100.35 478.008 97.75C475.508 95.05 472.108 93.7 467.808 93.7C463.508 93.7 460.008 95.05 457.308 97.75C454.708 100.35 453.408 103.65 453.408 107.65C453.408 111.75 454.708 115.15 457.308 117.85C460.008 120.45 463.508 121.75 467.808 121.75ZM530.368 151V62.5H517.168V40H570.418V62.5H557.368V151H530.368Z" fill="#1DA8A8"/>
</svg>
